<svg aria-hidden="true" style="position: absolute; width: 0; height: 0; overflow: hidden;" version="1.1" xmlns="http://www.w3.org/2000/svg" xmlns:xlink="http://www.w3.org/1999/xlink">
<defs>
<symbol id="icon-included-1" viewBox="0 0 32 32">
<path fill="#f3f4f5" style="fill: var(--color1, #f3f4f5)" d="M0 3.2c0-1.767 1.433-3.2 3.2-3.2h25.6c1.767 0 3.2 1.433 3.2 3.2v25.6c0 1.767-1.433 3.2-3.2 3.2h-25.6c-1.767 0-3.2-1.433-3.2-3.2v-25.6z"></path>
<path fill="#000" style="fill: var(--color2, #000)" d="M21.6 11.2h-6.4c-0.212 0-0.416 0.084-0.566 0.234s-0.234 0.354-0.234 0.566v10.4h-4.8c-0.212 0-0.416-0.084-0.566-0.234s-0.234-0.354-0.234-0.566v-12.8c0-0.212 0.084-0.416 0.234-0.566s0.354-0.234 0.566-0.234h11.2c0.212 0 0.416 0.084 0.566 0.234s0.234 0.354 0.234 0.566v2.4zM16.8 12.8h6.4c0.212 0 0.416 0.084 0.566 0.234s0.234 0.354 0.234 0.566v9.6c0 0.212-0.084 0.416-0.234 0.566s-0.354 0.234-0.566 0.234h-6.4c-0.212 0-0.416-0.084-0.566-0.234s-0.234-0.354-0.234-0.566v-9.6c0-0.212 0.084-0.416 0.234-0.566s0.354-0.234 0.566-0.234z"></path>
</symbol>
<symbol id="icon-included-2" viewBox="0 0 32 32">
<path fill="#f3f4f5" style="fill: var(--color1, #f3f4f5)" d="M0 3.2c0-1.767 1.433-3.2 3.2-3.2h25.6c1.767 0 3.2 1.433 3.2 3.2v25.6c0 1.767-1.433 3.2-3.2 3.2h-25.6c-1.767 0-3.2-1.433-3.2-3.2v-25.6z"></path>
<path fill="#000" style="fill: var(--color2, #000)" d="M16 8c4.418 0 8 3.182 8 7.111-0.001 1.179-0.469 2.309-1.303 3.142s-1.964 1.302-3.142 1.302h-1.573c-0.738 0-1.334 0.596-1.334 1.334 0 0.338 0.134 0.649 0.338 0.88 0.214 0.24 0.347 0.551 0.347 0.898 0 0.738-0.614 1.334-1.334 1.334-4.418 0-8-3.582-8-8s3.582-8 8-8zM12.4 16c0.318 0 0.624-0.126 0.849-0.351s0.351-0.53 0.351-0.849c0-0.318-0.126-0.624-0.351-0.849s-0.53-0.351-0.849-0.351c-0.318 0-0.624 0.126-0.849 0.351s-0.351 0.53-0.351 0.849c0 0.318 0.126 0.624 0.351 0.849s0.53 0.351 0.849 0.351zM19.6 16c0.318 0 0.624-0.126 0.849-0.351s0.351-0.53 0.351-0.849c0-0.318-0.126-0.624-0.351-0.849s-0.53-0.351-0.849-0.351c-0.318 0-0.624 0.126-0.849 0.351s-0.351 0.53-0.351 0.849c0 0.318 0.126 0.624 0.351 0.849s0.53 0.351 0.849 0.351zM16 13.6c0.318 0 0.624-0.126 0.849-0.351s0.351-0.53 0.351-0.849c0-0.318-0.126-0.624-0.351-0.849s-0.53-0.351-0.849-0.351c-0.318 0-0.624 0.126-0.849 0.351s-0.351 0.53-0.351 0.849c0 0.318 0.126 0.624 0.351 0.849s0.53 0.351 0.849 0.351z"></path>
</symbol>
<symbol id="icon-included-3" viewBox="0 0 32 32">
<path fill="#f3f4f5" style="fill: var(--color1, #f3f4f5)" d="M0 3.2c0-1.767 1.433-3.2 3.2-3.2h25.6c1.767 0 3.2 1.433 3.2 3.2v25.6c0 1.767-1.433 3.2-3.2 3.2h-25.6c-1.767 0-3.2-1.433-3.2-3.2v-25.6z"></path>
<path fill="#000" style="fill: var(--color2, #000)" d="M23.2 14v2.4c0 1.988-3.224 3.6-7.2 3.6s-7.2-1.612-7.2-3.6v-2.4c0 1.988 3.224 3.6 7.2 3.6s7.2-1.612 7.2-3.6zM8.8 18c0 1.988 3.224 3.6 7.2 3.6s7.2-1.612 7.2-3.6v2.4c0 1.988-3.224 3.6-7.2 3.6s-7.2-1.612-7.2-3.6v-2.4zM16 16c-3.976 0-7.2-1.612-7.2-3.6s3.224-3.6 7.2-3.6c3.976 0 7.2 1.612 7.2 3.6s-3.224 3.6-7.2 3.6z"></path>
</symbol>
<symbol id="icon-included-4" viewBox="0 0 32 32">
<path fill="#f3f4f5" style="fill: var(--color1, #f3f4f5)" d="M0 3.2c0-1.767 1.433-3.2 3.2-3.2h25.6c1.767 0 3.2 1.433 3.2 3.2v25.6c0 1.767-1.433 3.2-3.2 3.2h-25.6c-1.767 0-3.2-1.433-3.2-3.2v-25.6z"></path>
<path fill="#000" style="fill: var(--color2, #000)" d="M9.6 11.531l-2.594-2.594 1.132-1.132 2.594 2.594h12.194c0.125-0 0.248 0.029 0.359 0.085s0.208 0.137 0.283 0.237c0.074 0.1 0.124 0.216 0.146 0.339s0.014 0.249-0.022 0.368l-1.92 6.4c-0.049 0.165-0.151 0.309-0.289 0.412s-0.306 0.158-0.478 0.158h-9.805v1.6h8.8v1.6h-9.6c-0.212 0-0.416-0.084-0.566-0.234s-0.234-0.354-0.234-0.566v-9.269zM10.8 24.8c-0.318 0-0.623-0.126-0.848-0.352s-0.352-0.53-0.352-0.848c0-0.318 0.126-0.624 0.352-0.849s0.53-0.351 0.848-0.351c0.318 0 0.624 0.126 0.849 0.351s0.351 0.53 0.351 0.849c0 0.318-0.126 0.623-0.351 0.848s-0.53 0.352-0.849 0.352zM20.4 24.8c-0.318 0-0.623-0.126-0.848-0.352s-0.352-0.53-0.352-0.848c0-0.318 0.126-0.624 0.352-0.849s0.53-0.351 0.848-0.351c0.318 0 0.624 0.126 0.849 0.351s0.351 0.53 0.351 0.849c0 0.318-0.126 0.623-0.351 0.848s-0.53 0.352-0.849 0.352z"></path>
</symbol>
<symbol id="icon-youtube" viewBox="0 0 44 32">
<path d="M38.739 1.262c1.855 0.509 3.317 2.009 3.812 3.914 0.901 3.452 0.901 10.656 0.901 10.656s0 7.203-0.901 10.655c-0.496 1.905-1.957 3.405-3.812 3.914-3.362 0.925-16.844 0.925-16.844 0.925s-13.483 0-16.845-0.925c-1.855-0.509-3.316-2.009-3.812-3.914-0.901-3.452-0.901-10.655-0.901-10.655s0-7.203 0.901-10.656c0.496-1.905 1.957-3.405 3.812-3.914 3.362-0.925 16.845-0.925 16.845-0.925s13.482 0 16.844 0.925zM17.853 9.769v13.474l10.779-6.736-10.779-6.737z"></path>
</symbol>
<symbol id="icon-instagram" viewBox="0 0 32 32">
<path d="M15.755 0h-0.005c4.28 0 4.815 0.019 6.495 0.095 1.677 0.077 2.823 0.342 3.827 0.732 1.037 0.402 1.913 0.94 2.79 1.817s1.415 1.755 1.818 2.791c0.387 1.002 0.653 2.146 0.732 3.824 0.075 1.681 0.095 2.217 0.095 6.496s-0.020 4.814-0.095 6.495c-0.079 1.676-0.345 2.822-0.732 3.824-0.404 1.036-0.942 1.915-1.818 2.79-0.875 0.876-1.753 1.416-2.789 1.818-1.002 0.39-2.149 0.655-3.826 0.732-1.68 0.077-2.216 0.095-6.495 0.095s-4.815-0.019-6.495-0.095c-1.677-0.077-2.822-0.342-3.824-0.732-1.036-0.402-1.914-0.942-2.79-1.818s-1.414-1.755-1.817-2.791c-0.389-1.002-0.655-2.146-0.732-3.824-0.076-1.68-0.095-2.216-0.095-6.494s0.020-4.816 0.095-6.496c0.075-1.676 0.341-2.822 0.732-3.824 0.404-1.036 0.942-1.915 1.818-2.79s1.755-1.414 2.791-1.817c1.002-0.39 2.146-0.655 3.824-0.732 1.68-0.076 2.217-0.095 6.496-0.095zM15.23 2.839h-0c-0.318-0-0.614-0-0.888 0v-0.004c-2.936 0.003-3.499 0.023-4.953 0.089-1.536 0.071-2.37 0.327-2.925 0.543-0.735 0.286-1.26 0.628-1.812 1.179s-0.893 1.077-1.179 1.812c-0.216 0.555-0.472 1.389-0.543 2.925-0.076 1.661-0.091 2.157-0.091 6.364s0.015 4.706 0.091 6.367c0.070 1.536 0.327 2.37 0.543 2.924 0.286 0.736 0.627 1.259 1.179 1.811s1.077 0.893 1.812 1.178c0.556 0.216 1.389 0.472 2.925 0.543 1.661 0.075 2.159 0.092 6.366 0.092s4.705-0.016 6.366-0.092c1.536-0.070 2.37-0.326 2.925-0.543 0.736-0.286 1.259-0.627 1.81-1.178s0.893-1.075 1.179-1.81c0.216-0.555 0.472-1.388 0.543-2.924 0.075-1.661 0.092-2.16 0.092-6.364s-0.017-4.703-0.092-6.364c-0.070-1.536-0.327-2.37-0.543-2.924-0.286-0.735-0.628-1.26-1.179-1.812s-1.075-0.893-1.81-1.178c-0.555-0.216-1.389-0.472-2.925-0.543-1.661-0.075-2.16-0.091-6.366-0.091l-0.525-0zM22.274 7.345c0-1.044 0.847-1.89 1.89-1.89s1.89 0.846 1.89 1.89c0 1.044-0.847 1.89-1.89 1.89s-1.89-0.847-1.89-1.89zM7.665 15.754c0-4.468 3.622-8.090 8.090-8.090s8.089 3.623 8.089 8.090c0 4.468-3.621 8.089-8.089 8.089s-8.090-3.621-8.090-8.089zM21.007 15.754c0-2.9-2.351-5.251-5.251-5.251s-5.251 2.351-5.251 5.251c0 2.9 2.351 5.251 5.251 5.251s5.251-2.351 5.251-5.251z"></path>
</symbol>
<symbol id="icon-twitter" viewBox="0 0 38 32">
<path d="M18.050 8.813l0.081 1.329-1.343-0.163c-4.888-0.624-9.159-2.739-12.785-6.291l-1.773-1.763-0.457 1.302c-0.967 2.901-0.349 5.966 1.665 8.027 1.074 1.139 0.833 1.302-1.021 0.624-0.645-0.217-1.209-0.38-1.262-0.298-0.188 0.19 0.457 2.657 0.967 3.634 0.698 1.356 2.122 2.685 3.68 3.471l1.316 0.624-1.558 0.027c-1.504 0-1.558 0.027-1.397 0.597 0.537 1.763 2.659 3.634 5.023 4.447l1.665 0.569-1.451 0.868c-2.149 1.247-4.674 1.952-7.198 2.007-1.209 0.027-2.203 0.136-2.203 0.217 0 0.271 3.277 1.79 5.184 2.386 5.721 1.763 12.517 1.003 17.62-2.007 3.626-2.142 7.252-6.4 8.944-10.521 0.913-2.197 1.827-6.21 1.827-8.135 0-1.247 0.080-1.41 1.585-2.902 0.886-0.868 1.719-1.817 1.88-2.088 0.268-0.515 0.242-0.515-1.128-0.054-2.283 0.814-2.605 0.705-1.477-0.515 0.833-0.868 1.826-2.44 1.826-2.901 0-0.081-0.403 0.054-0.86 0.298-0.483 0.271-1.558 0.678-2.364 0.922l-1.45 0.461-1.316-0.895c-0.725-0.488-1.746-1.030-2.283-1.193-1.37-0.38-3.465-0.325-4.7 0.108-3.358 1.22-5.48 4.366-5.238 7.81z"></path>
</symbol>
<symbol id="icon-facebook" viewBox="0 0 15 32">
<path d="M10.076 30.947v-15.475h4.272l0.566-5.333h-4.838l0.007-2.669c0-1.391 0.132-2.136 2.13-2.136h2.671v-5.333h-4.272c-5.132 0-6.938 2.587-6.938 6.938v3.202h-3.199v5.333h3.199v15.475h6.403z"></path>
</symbol>
</defs>
</svg>
