<svg xmlns="http://www.w3.org/2000/svg" aria-hidden="true" style="position:absolute;width:0;height:0;overflow:hidden">
  <defs>
    <symbol id="icon-included-1" viewBox="0 0 32 32">
      <path fill="#f3f4f5" d="M0 3.2A3.2 3.2 0 0 1 3.2 0h25.6A3.2 3.2 0 0 1 32 3.2v25.6a3.2 3.2 0 0 1-3.2 3.2H3.2A3.2 3.2 0 0 1 0 28.8V3.2z" style="fill:var(--color1, #f3f4f5"/>
      <path d="M21.6 11.2h-6.4a.8.8 0 0 0-.8.8v10.4H9.6a.8.8 0 0 1-.8-.8V8.8a.8.8 0 0 1 .8-.8h11.2a.8.8 0 0 1 .8.8v2.4zm-4.8 1.6h6.4a.8.8 0 0 1 .8.8v9.6a.8.8 0 0 1-.8.8h-6.4a.8.8 0 0 1-.8-.8v-9.6a.8.8 0 0 1 .8-.8z"/>
    </symbol>
    <symbol id="icon-included-2" viewBox="0 0 32 32">
      <path fill="#f3f4f5" d="M0 3.2A3.2 3.2 0 0 1 3.2 0h25.6A3.2 3.2 0 0 1 32 3.2v25.6a3.2 3.2 0 0 1-3.2 3.2H3.2A3.2 3.2 0 0 1 0 28.8V3.2z" style="fill:var(--color1, #f3f4f5)"/>
      <path d="M16 8c4.418 0 8 3.182 8 7.111a4.445 4.445 0 0 1-4.445 4.444h-1.573c-.738 0-1.334.596-1.334 1.334 0 .338.134.649.338.88.214.24.347.551.347.898 0 .738-.614 1.334-1.334 1.334a8 8 0 0 1 0-16zm-3.6 8a1.201 1.201 0 1 0 0-2.402 1.201 1.201 0 0 0 0 2.402zm7.2 0a1.201 1.201 0 1 0 0-2.402 1.201 1.201 0 0 0 0 2.402zM16 13.6a1.201 1.201 0 1 0 0-2.402 1.201 1.201 0 0 0 0 2.402z"/>
    </symbol>
    <symbol id="icon-included-3" viewBox="0 0 32 32">
      <path fill="#f3f4f5" d="M0 3.2A3.2 3.2 0 0 1 3.2 0h25.6A3.2 3.2 0 0 1 32 3.2v25.6a3.2 3.2 0 0 1-3.2 3.2H3.2A3.2 3.2 0 0 1 0 28.8V3.2z" style="fill:var(--color1, #f3f4f5)"/>
      <path d="M23.2 14v2.4c0 1.988-3.224 3.6-7.2 3.6s-7.2-1.612-7.2-3.6V14c0 1.988 3.224 3.6 7.2 3.6s7.2-1.612 7.2-3.6zM8.8 18c0 1.988 3.224 3.6 7.2 3.6s7.2-1.612 7.2-3.6v2.4c0 1.988-3.224 3.6-7.2 3.6s-7.2-1.612-7.2-3.6V18zm7.2-2c-3.976 0-7.2-1.612-7.2-3.6s3.224-3.6 7.2-3.6 7.2 1.612 7.2 3.6S19.976 16 16 16z"/>
    </symbol>
    <symbol id="icon-included-4" viewBox="0 0 32 32">
      <path fill="#f3f4f5" d="M0 3.2A3.2 3.2 0 0 1 3.2 0h25.6A3.2 3.2 0 0 1 32 3.2v25.6a3.2 3.2 0 0 1-3.2 3.2H3.2A3.2 3.2 0 0 1 0 28.8V3.2z" style="fill:var(--color1, #f3f4f5)"/>
      <path d="M9.6 11.531 7.006 8.937l1.132-1.132 2.594 2.594h12.194a.797.797 0 0 1 .788.661.79.79 0 0 1-.022.368l-1.92 6.4a.799.799 0 0 1-.767.57H11.2v1.6H20v1.6h-9.6a.8.8 0 0 1-.8-.8v-9.269zM10.8 24.8a1.202 1.202 0 0 1-.848-2.049A1.2 1.2 0 1 1 10.8 24.8zm9.6 0a1.202 1.202 0 0 1-.848-2.049A1.2 1.2 0 1 1 20.4 24.8z" />
    </symbol>
    <symbol id="icon-youtube" viewBox="0 0 44 32">
      <path d="M38.739 1.262c1.855.509 3.317 2.009 3.812 3.914.901 3.452.901 10.656.901 10.656s0 7.203-.901 10.655c-.496 1.905-1.957 3.405-3.812 3.914-3.362.925-16.844.925-16.844.925s-13.483 0-16.845-.925c-1.855-.509-3.316-2.009-3.812-3.914C.337 23.035.337 15.832.337 15.832s0-7.203.901-10.656c.496-1.905 1.957-3.405 3.812-3.914C8.412.337 21.895.337 21.895.337s13.482 0 16.844.925zM17.853 9.769v13.474l10.779-6.736L17.853 9.77z"/>
    </symbol>
    <symbol id="icon-instagram" viewBox="0 0 32 32">
      <path d="M15.755 0h-.005c4.28 0 4.815.019 6.495.095 1.677.077 2.823.342 3.827.732 1.037.402 1.913.94 2.79 1.817s1.415 1.755 1.818 2.791c.387 1.002.653 2.146.732 3.824.075 1.681.095 2.217.095 6.496s-.02 4.814-.095 6.495c-.079 1.676-.345 2.822-.732 3.824a7.732 7.732 0 0 1-1.818 2.79 7.703 7.703 0 0 1-2.789 1.818c-1.002.39-2.149.655-3.826.732-1.68.077-2.216.095-6.495.095s-4.815-.019-6.495-.095c-1.677-.077-2.822-.342-3.824-.732-1.036-.402-1.914-.942-2.79-1.818S1.229 27.109.826 26.073c-.389-1.002-.655-2.146-.732-3.824-.076-1.68-.095-2.216-.095-6.494s.02-4.816.095-6.496c.075-1.676.341-2.822.732-3.824.404-1.036.942-1.915 1.818-2.79S4.399 1.231 5.435.828C6.437.438 7.581.173 9.259.096c1.68-.076 2.217-.095 6.496-.095zm-.525 2.839h-.888v-.004c-2.936.003-3.499.023-4.953.089-1.536.071-2.37.327-2.925.543-.735.286-1.26.628-1.812 1.179s-.893 1.077-1.179 1.812c-.216.555-.472 1.389-.543 2.925-.076 1.661-.091 2.157-.091 6.364s.015 4.706.091 6.367c.07 1.536.327 2.37.543 2.924.286.736.627 1.259 1.179 1.811s1.077.893 1.812 1.178c.556.216 1.389.472 2.925.543 1.661.075 2.159.092 6.366.092s4.705-.016 6.366-.092c1.536-.07 2.37-.326 2.925-.543.736-.286 1.259-.627 1.81-1.178s.893-1.075 1.179-1.81c.216-.555.472-1.388.543-2.924.075-1.661.092-2.16.092-6.364s-.017-4.703-.092-6.364c-.07-1.536-.327-2.37-.543-2.924-.286-.735-.628-1.26-1.179-1.812s-1.075-.893-1.81-1.178c-.555-.216-1.389-.472-2.925-.543-1.661-.075-2.16-.091-6.366-.091h-.525zm7.044 4.506a1.89 1.89 0 1 1 3.78 0 1.89 1.89 0 0 1-3.78 0zM7.665 15.754a8.09 8.09 0 1 1 16.18 0 8.09 8.09 0 0 1-16.18 0zm13.342 0a5.251 5.251 0 1 0-10.502 0 5.251 5.251 0 0 0 10.502 0z"/>
    </symbol>
    <symbol id="icon-twitter" viewBox="0 0 38 32">
      <path d="m18.05 8.813.081 1.329-1.343-.163C11.9 9.355 7.629 7.24 4.003 3.688L2.23 1.925l-.457 1.302c-.967 2.901-.349 5.966 1.665 8.027 1.074 1.139.833 1.302-1.021.624-.645-.217-1.209-.38-1.262-.298-.188.19.457 2.657.967 3.634.698 1.356 2.122 2.685 3.68 3.471l1.316.624-1.558.027c-1.504 0-1.558.027-1.397.597.537 1.763 2.659 3.634 5.023 4.447l1.665.569-1.451.868a15.137 15.137 0 0 1-7.198 2.007c-1.209.027-2.203.136-2.203.217 0 .271 3.277 1.79 5.184 2.386 5.721 1.763 12.517 1.003 17.62-2.007 3.626-2.142 7.252-6.4 8.944-10.521.913-2.197 1.827-6.21 1.827-8.135 0-1.247.08-1.41 1.585-2.902.886-.868 1.719-1.817 1.88-2.088.268-.515.242-.515-1.128-.054-2.283.814-2.605.705-1.477-.515.833-.868 1.826-2.44 1.826-2.901 0-.081-.403.054-.86.298-.483.271-1.558.678-2.364.922l-1.45.461-1.316-.895c-.725-.488-1.746-1.03-2.283-1.193-1.37-.38-3.465-.325-4.7.108-3.358 1.22-5.48 4.366-5.238 7.81z"/>
    </symbol>
    <symbol id="icon-facebook" viewBox="0 0 15 32">
      <path d="M10.076 30.947V15.472h4.272l.566-5.333h-4.838l.007-2.669c0-1.391.132-2.136 2.13-2.136h2.671V.001h-4.272c-5.132 0-6.938 2.587-6.938 6.938v3.202H.475v5.333h3.199v15.475h6.403z"/>
    </symbol>
    <symbol id="icon-modal-close" viewBox="0 0 32 32">
<path d="M32 3.223l-3.223-3.223-12.777 12.777-12.777-12.777-3.223 3.223 12.777 12.777-12.777 12.777 3.223 3.223 12.777-12.777 12.777 12.777 3.223-3.223-12.777-12.777 12.777-12.777z"></path>
</symbol>
  </defs>
</svg>
