<svg width="40" height="40" viewBox="0 0 40 40" fill="none" xmlns="http://www.w3.org/2000/svg">
<path d="M0 4C0 1.79086 1.79086 0 4 0H36C38.2091 0 40 1.79086 40 4V36C40 38.2091 38.2091 40 36 40H4C1.79086 40 0 38.2091 0 36V4Z" fill="#F3F4F5"/>
<g clip-path="url(#clip0_2_460)">
<path d="M20 10C25.522 10 30 13.978 30 18.889C29.9992 20.3622 29.4136 21.7748 28.3717 22.8165C27.3299 23.8581 25.9172 24.4435 24.444 24.444H22.478C21.556 24.444 20.811 25.189 20.811 26.111C20.811 26.533 20.978 26.922 21.233 27.211C21.5 27.511 21.667 27.9 21.667 28.333C21.667 29.256 20.9 30 20 30C14.478 30 10 25.522 10 20C10 14.478 14.478 10 20 10ZM15.5 20C15.8978 20 16.2794 19.842 16.5607 19.5607C16.842 19.2794 17 18.8978 17 18.5C17 18.1022 16.842 17.7206 16.5607 17.4393C16.2794 17.158 15.8978 17 15.5 17C15.1022 17 14.7206 17.158 14.4393 17.4393C14.158 17.7206 14 18.1022 14 18.5C14 18.8978 14.158 19.2794 14.4393 19.5607C14.7206 19.842 15.1022 20 15.5 20ZM24.5 20C24.8978 20 25.2794 19.842 25.5607 19.5607C25.842 19.2794 26 18.8978 26 18.5C26 18.1022 25.842 17.7206 25.5607 17.4393C25.2794 17.158 24.8978 17 24.5 17C24.1022 17 23.7206 17.158 23.4393 17.4393C23.158 17.7206 23 18.1022 23 18.5C23 18.8978 23.158 19.2794 23.4393 19.5607C23.7206 19.842 24.1022 20 24.5 20ZM20 17C20.3978 17 20.7794 16.842 21.0607 16.5607C21.342 16.2794 21.5 15.8978 21.5 15.5C21.5 15.1022 21.342 14.7206 21.0607 14.4393C20.7794 14.158 20.3978 14 20 14C19.6022 14 19.2206 14.158 18.9393 14.4393C18.658 14.7206 18.5 15.1022 18.5 15.5C18.5 15.8978 18.658 16.2794 18.9393 16.5607C19.2206 16.842 19.6022 17 20 17Z" fill="black"/>
</g>
<defs>
<clipPath id="clip0_2_460">
<rect width="24" height="24" fill="white" transform="translate(8 8)"/>
</clipPath>
</defs>
</svg>
