<svg width="40" height="40" viewBox="0 0 40 40" fill="none" xmlns="http://www.w3.org/2000/svg">
<path d="M0 4C0 1.79086 1.79086 0 4 0H36C38.2091 0 40 1.79086 40 4V36C40 38.2091 38.2091 40 36 40H4C1.79086 40 0 38.2091 0 36V4Z" fill="#F3F4F5"/>
<g clip-path="url(#clip0_2_476)">
<path d="M12 14.414L8.75702 11.172L10.172 9.75696L13.414 13H28.656C28.8119 12.9999 28.9656 13.0364 29.1049 13.1063C29.2442 13.1763 29.3652 13.2778 29.4583 13.4029C29.5513 13.5279 29.6139 13.6729 29.6409 13.8264C29.668 13.9799 29.6588 14.1376 29.614 14.287L27.214 22.287C27.1523 22.493 27.0257 22.6737 26.8531 22.8022C26.6806 22.9306 26.4712 23 26.256 23H14V25H25V27H13C12.7348 27 12.4804 26.8946 12.2929 26.7071C12.1054 26.5195 12 26.2652 12 26V14.414ZM13.5 31C13.1022 31 12.7207 30.8419 12.4394 30.5606C12.1581 30.2793 12 29.8978 12 29.5C12 29.1021 12.1581 28.7206 12.4394 28.4393C12.7207 28.158 13.1022 28 13.5 28C13.8978 28 14.2794 28.158 14.5607 28.4393C14.842 28.7206 15 29.1021 15 29.5C15 29.8978 14.842 30.2793 14.5607 30.5606C14.2794 30.8419 13.8978 31 13.5 31ZM25.5 31C25.1022 31 24.7207 30.8419 24.4394 30.5606C24.1581 30.2793 24 29.8978 24 29.5C24 29.1021 24.1581 28.7206 24.4394 28.4393C24.7207 28.158 25.1022 28 25.5 28C25.8978 28 26.2794 28.158 26.5607 28.4393C26.842 28.7206 27 29.1021 27 29.5C27 29.8978 26.842 30.2793 26.5607 30.5606C26.2794 30.8419 25.8978 31 25.5 31Z" fill="black"/>
</g>
<defs>
<clipPath id="clip0_2_476">
<rect width="24" height="24" fill="white" transform="translate(8 8)"/>
</clipPath>
</defs>
</svg>
